<svg id="chart" xmlns="http://www.w3.org/2000/svg" xmlns:xlink="http://www.w3.org/1999/xlink" width="226" height="156" viewBox="0 0 226 156">
  <defs>
    <clipPath id="clip-path">
      <circle id="Color" cx="3" cy="3" r="3" transform="translate(7 7)" fill="#ed6672"/>
    </clipPath>
  </defs>
  <g id="Line_Copy" data-name="Line Copy" transform="translate(0 87)" opacity="0.5">
    <g id="Rectangle" fill="none" stroke="#e9ebf1" stroke-miterlimit="10" stroke-width="1">
      <rect width="226" height="1" stroke="none"/>
      <rect x="0.5" y="0.5" width="225" fill="none"/>
    </g>
  </g>
  <g id="Line_Copy-2" data-name="Line Copy" transform="translate(0 46)" opacity="0.5">
    <g id="Rectangle-2" data-name="Rectangle" fill="none" stroke="#e9ebf1" stroke-miterlimit="10" stroke-width="1">
      <rect width="226" height="1" stroke="none"/>
      <rect x="0.5" y="0.5" width="225" fill="none"/>
    </g>
  </g>
  <g id="Line_Copy-3" data-name="Line Copy" transform="translate(0 5)" opacity="0.5">
    <g id="Rectangle-3" data-name="Rectangle" fill="none" stroke="#e9ebf1" stroke-miterlimit="10" stroke-width="1">
      <rect width="226" height="1" stroke="none"/>
      <rect x="0.5" y="0.5" width="225" fill="none"/>
    </g>
  </g>
  <path id="Path" d="M0,0C8.968-9.783,7.283-21.628,18.751-21.628,35.056-21.628,38.236,0,50.953,0,59.138,0,70.16-16.713,86.009-16.713c12.8,0,22.237-18.343,35.871-18.343,7.614,0,16.983,11.615,31.387,9.8,11.414-1.442,20.818-26.1,36.686-26.1,10.327,0,14.34-1.223,20.046-11.821" transform="matrix(0.985, -0.174, 0.174, 0.985, 15.081, 112.935)" fill="none" stroke="#ed6672" stroke-linecap="round" stroke-miterlimit="10" stroke-width="4"/>
  <text id="Jan" transform="translate(0 153)" fill="#9d1e1e" font-size="10" font-family="DMSans-Regular, DM Sans" opacity="0.5"><tspan x="0" y="0">Jan</tspan></text>
  <text id="Feb_Copy" data-name="Feb Copy" transform="translate(104 153)" fill="#9d1e1e" font-size="10" font-family="DMSans-Regular, DM Sans" opacity="0.5"><tspan x="0" y="0">Feb</tspan></text>
  <g id="Line" transform="translate(0 128)" opacity="0.5">
    <g id="Rectangle-4" data-name="Rectangle" fill="none" stroke="#e9ebf1" stroke-miterlimit="10" stroke-width="1">
      <rect width="226" height="1" stroke="none"/>
      <rect x="0.5" y="0.5" width="225" fill="none"/>
    </g>
  </g>
  <text id="Mar" transform="translate(208 153)" fill="#9d1e1e" font-size="10" font-family="DMSans-Regular, DM Sans" opacity="0.5"><tspan x="0" y="0">Mar</tspan></text>
  <g id="Dot" transform="translate(104 57)">
    <g id="Dot-2" data-name="Dot">
      <circle id="Oval" cx="10" cy="10" r="10" fill="#fff"/>
      <circle id="Color-2" data-name="Color" cx="3" cy="3" r="3" transform="translate(7 7)" fill="#ed6672"/>
    </g>
  </g>
  <g id="Bubble" transform="translate(77)">
    <g id="Bubble-2" data-name="Bubble">
      <path id="BG" d="M34.393,41.279,29.773,36H4a4,4,0,0,1-4-4V4A4,4,0,0,1,4,0H69a4,4,0,0,1,4,4V32a4,4,0,0,1-4,4H42.023L37.4,41.279a2,2,0,0,1-3.01,0Z" fill="#ed6672"/>
    </g>
  </g>
  <text id="_304_562" data-name="304,562" transform="translate(113.5 23)" fill="#fff" font-size="12" font-family="DMSans-Bold, DM Sans" font-weight="700"><tspan x="-23.94" y="0">304,562</tspan></text>
</svg>
