<svg xmlns="http://www.w3.org/2000/svg" xmlns:xlink="http://www.w3.org/1999/xlink" width="92" height="85" viewBox="0 0 92 85">
  <defs>
    <clipPath id="clip-path">
      <path id="Clip_24" data-name="Clip 24" d="M0,0H48.57V47.006H0Z" transform="translate(0.467 0.444)" fill="none"/>
    </clipPath>
  </defs>
  <g id="icon-wash-hands" transform="translate(0 -0.474)">
    <path id="Fill_1_Copy_2" data-name="Fill 1 Copy 2" d="M92,39.006c0,.645-.091,2.251-.261,4.818a44.3,44.3,0,0,1-1.7,8.909A55.356,55.356,0,0,1,85.6,63.45,37.2,37.2,0,0,1,77.1,73.924,44.287,44.287,0,0,1,63.25,81.869Q54.881,85,42.864,85a62.443,62.443,0,0,1-17.511-2.284,36.789,36.789,0,0,1-13.46-6.985,31.455,31.455,0,0,1-8.756-12.04A44.941,44.941,0,0,1,0,45.994,53.813,53.813,0,0,1,2.744,29.015a42.029,42.029,0,0,1,8.494-14.8,40.4,40.4,0,0,1,14.9-10.357Q35.284,0,47.83,0,69.523,0,80.761,10.112T92,39.006" transform="translate(0 0.474)" fill="#ffe8e9" opacity="0.4"/>
    <g id="Group_30" data-name="Group 30" transform="translate(19 1.474)">
      <path id="Fill_1" data-name="Fill 1" d="M.754,38.9c-.909-2.225-.9-5.688-.471-8.83C.853,25.927,5.556,11.4,15.04,5.033c3.254-2.186,3.667,2.6,2.213,6.222C15.19,16.392,14.406,19.2,14.406,19.2S28.863-.725,32.491.02c4.616.949-7.225,15.491-9.683,19.442,0,0,17.5-18.608,21.7-17.1,5.818,2.1-15.733,21.715-15.733,21.715s16.071-13.666,19.464-9.9c3.035,3.364-15.542,15.967-15.542,15.967s12.255-8.411,15.352-6.592c2.808,1.65-7.733,11.621-13.529,14.88-3.911,2.2-7.714,5.207-17.2,8.063C11.928,48.119,3.631,45.95.754,38.9" transform="translate(0 18.009)" fill="#ea9686"/>
      <path id="Fill_3" data-name="Fill 3" d="M1.811,22.716s-7.039-12.2,6.64-16.378c0,0-1.331-6.127,5.131-6.338H24.117s4.534,4.979,5.051,6.1A48.8,48.8,0,0,1,30.639,11.1a15.765,15.765,0,0,1-1.748,5.613c-1.592,3.116-6,5.431-6,5.431s-6.328.639-8.713.56-5.709-.2-6.831-2.058-5.536,2.064-5.536,2.064" transform="translate(11.932 30.408)" fill="#6eecf9"/>
      <path id="Fill_5" data-name="Fill 5" d="M7.32.649s9.185-3.565,10.516,6.018c0,0,11,6.229,5.19,14.634C21.834,28.79,4.178,26.792,3.94,26.632S.43,22.859.43,22.859s-.967-7.646,0-8.845S7.32.649,7.32.649" transform="translate(33.78 29.758)" fill="#6eecf9"/>
      <path id="Fill_7" data-name="Fill 7" d="M38.543,2.637c-.065.03-18.174,8.305-28.778,5.348C1.695,5.734.249,1.775.019,0A14.845,14.845,0,0,0,.746,5.855c2.879,7.045,11.176,9.213,16.564,7.589C26.8,10.588,30.6,7.579,34.508,5.381a34.884,34.884,0,0,0,4.035-2.744" transform="translate(0.007 51.058)" fill="#ea9686"/>
      <path id="Fill_9" data-name="Fill 9" d="M5.594,0C5.565.049.848,10.271.223,12.184c-.824,2.515.836.527,1.736-.693,0,0,.784-2.806,2.848-7.943A11.233,11.233,0,0,0,5.594,0" transform="translate(12.447 25.716)" fill="#ea9686"/>
      <path id="Fill_11" data-name="Fill 11" d="M17.391,1.827A39.846,39.846,0,0,0,0,.376V53.019H17.391Z" transform="translate(25.513 0.001)" fill="#50d1e7"/>
      <path id="Fill_13" data-name="Fill 13" d="M.43,0S.3,22.294.43,24.777,2.1,12.778.43,0" transform="translate(27.524 2.537)" fill="#36bfce"/>
      <path id="Fill_15" data-name="Fill 15" d="M.454,0s-.12,22.294,0,24.778,1.561-12,0-24.778" transform="translate(31.557 22.502)" fill="#6eecf9"/>
      <path id="Fill_17" data-name="Fill 17" d="M.469,0S.288,35.14.413,37.623,2.1,12.778.469,0" transform="translate(36.515 3.141)" fill="#6eecf9"/>
      <path id="Fill_19" data-name="Fill 19" d="M.55,0S.465,22.294.55,24.777,1.662,12.778.55,0" transform="translate(40.037 4.054)" fill="#36bfce"/>
      <path id="Fill_21" data-name="Fill 21" d="M.549,0s-.085,22.294,0,24.777,1.112-12,0-24.777" transform="translate(34.311 13.424)" fill="#36bfce"/>
      <g id="Group_25" data-name="Group 25" transform="translate(12.6 24.543)">
        <path id="Clip_24-2" data-name="Clip 24" d="M0,0H48.57V47.006H0Z" transform="translate(0.467 0.444)" fill="none"/>
        <g id="Group_25-2" data-name="Group 25" clip-path="url(#clip-path)">
          <path id="Fill_23" data-name="Fill 23" d="M.753,38.9c-.909-2.225-.9-5.688-.469-8.83C.854,25.927,5.557,11.4,15.04,5.033c3.254-2.186,3.667,2.6,2.213,6.222C15.19,16.392,14.405,19.2,14.405,19.2S28.862-.725,32.491.02c4.616.949-7.225,15.491-9.683,19.442,0,0,17.5-18.608,21.7-17.1,5.816,2.1-15.734,21.715-15.734,21.715s16.071-13.666,19.464-9.9c3.035,3.364-15.542,15.967-15.542,15.967s12.255-8.411,15.353-6.592c2.807,1.65-7.735,11.621-13.531,14.88-3.909,2.2-7.714,5.207-17.2,8.063C11.928,48.119,3.631,45.95.753,38.9" transform="translate(0.467 0.444)" fill="#f5b8a5"/>
        </g>
      </g>
      <path id="Fill_26" data-name="Fill 26" d="M38.543,2.637c-.063.03-18.174,8.305-28.777,5.348C1.7,5.734.249,1.775.019,0A14.845,14.845,0,0,0,.746,5.855c2.879,7.045,11.176,9.213,16.564,7.589C26.8,10.588,30.6,7.579,34.508,5.381a35.087,35.087,0,0,0,4.035-2.744" transform="translate(13.073 58.036)" fill="#ea9686"/>
      <path id="Fill_28" data-name="Fill 28" d="M5.594,0C5.565.049.848,10.271.223,12.184c-.824,2.513.836.527,1.736-.693,0,0,.784-2.806,2.848-7.943A11.233,11.233,0,0,0,5.594,0" transform="translate(25.514 32.694)" fill="#ea9686"/>
    </g>
  </g>
</svg>
