<svg id="np_menu_2733617_000000" xmlns="http://www.w3.org/2000/svg" width="19.98" height="20" viewBox="0 0 19.98 20">
  <path id="Combined_Shape" data-name="Combined Shape" d="M16.1,20a.549.549,0,0,1-.551-.551V16.1a.549.549,0,0,1,.551-.551h3.326a.549.549,0,0,1,.551.551v3.347a.549.549,0,0,1-.551.551ZM8.327,20a.549.549,0,0,1-.551-.551V16.1a.549.549,0,0,1,.551-.551h3.326a.549.549,0,0,1,.551.551v3.347a.549.549,0,0,1-.551.551ZM.551,20A.549.549,0,0,1,0,19.449V16.1a.549.549,0,0,1,.551-.551H3.877a.548.548,0,0,1,.551.551v3.347A.548.548,0,0,1,3.877,20ZM16.1,12.224a.549.549,0,0,1-.551-.551V8.327a.549.549,0,0,1,.551-.551h3.326a.549.549,0,0,1,.551.551v3.346a.549.549,0,0,1-.551.551Zm-7.775,0a.549.549,0,0,1-.551-.551V8.327a.549.549,0,0,1,.551-.551h3.326a.549.549,0,0,1,.551.551v3.346a.549.549,0,0,1-.551.551Zm-7.776,0A.549.549,0,0,1,0,11.673V8.327a.549.549,0,0,1,.551-.551H3.877a.548.548,0,0,1,.551.551v3.346a.548.548,0,0,1-.551.551ZM8.327,4.45A.549.549,0,0,1,7.776,3.9V.551A.549.549,0,0,1,8.327,0h3.326A.549.549,0,0,1,12.2.551V3.9a.549.549,0,0,1-.551.551Zm-7.776,0A.549.549,0,0,1,0,3.9V.551A.549.549,0,0,1,.551,0H3.877a.548.548,0,0,1,.551.551V3.9a.548.548,0,0,1-.551.551ZM16.1,4.428a.548.548,0,0,1-.551-.551V.551A.549.549,0,0,1,16.1,0h3.347a.519.519,0,0,1,.53.551V3.877a.548.548,0,0,1-.551.551Z" transform="translate(0 0)" fill="#ed6672"/>
</svg>
