<svg xmlns="http://www.w3.org/2000/svg" width="92" height="84" viewBox="0 0 92 84">
  <g id="icon-caugh" transform="translate(0 0.224)">
    <path id="Fill_1" data-name="Fill 1" d="M92,38.547c0,.638-.091,2.225-.261,4.761a43.321,43.321,0,0,1-1.7,8.8A54.347,54.347,0,0,1,85.6,62.7,36.851,36.851,0,0,1,77.1,73.054,44.417,44.417,0,0,1,63.25,80.906Q54.881,84,42.864,84a63.141,63.141,0,0,1-17.511-2.257,36.943,36.943,0,0,1-13.46-6.9,31.107,31.107,0,0,1-8.756-11.9A43.95,43.95,0,0,1,0,45.453,52.61,52.61,0,0,1,2.744,28.674a41.417,41.417,0,0,1,8.494-14.631,40.4,40.4,0,0,1,14.9-10.235Q35.284,0,47.83,0,69.523,0,80.761,9.993T92,38.547" transform="translate(0 -0.224)" fill="#ffe8e9" opacity="0.4"/>
    <g id="Group_45" data-name="Group 45" transform="translate(22 10.776)">
      <path id="Fill_1-2" data-name="Fill 1" d="M46.362,14.059s3.974,4.724,1.484,9.915a32.364,32.364,0,0,1-6.078,8.6l-12.3,1.707-7.791,3.743L11.275,41.087S4.4,40.813,3.7,39.605s-.855-8.718-.855-8.718S-.919,22.233.212,17.815,7.971,9.509,7.971,9.509,17.712.39,26.842.024s6.383,3.582,6.383,3.582,19.7-1.293,13.138,10.453" transform="translate(1.333 0.652)" fill="#6b3a29"/>
      <path id="Fill_3" data-name="Fill 3" d="M42.489,8.853c-.409-3.776-8.045-4.4-8.045-4.4S37.907,2.561,31.035.6,13.872,1.933,10.7,4.684a26.355,26.355,0,0,0-4.944,5.742,14.849,14.849,0,0,0,4.254-.943s-1.963,4.64-6.07,5.347S.152,13.336.152,13.336L0,13.905a43.755,43.755,0,0,0,1.637,4.242s.077,3.434.357,5.965c.729,1.11,1.509,2.247,2.274,3.264a42.143,42.143,0,0,0,6.053.667l10.722-2.972,8.027-3.631,12.667-1.656A31.6,31.6,0,0,0,48,11.441c-1.687,1.252-5.1,1.188-5.511-2.588" transform="translate(1.333 13.043)" fill="#5b2a1d"/>
      <path id="Fill_5" data-name="Fill 5" d="M2.366,12.727A4.38,4.38,0,0,1,8,15.347c.528-3.651,4.449-6.125,4.449-6.125,4.614-3.264,4.1-6.954,4.139-7.132,0,0,4.69-2.578,13.622-2.007,2.438.478,8.689.081,11.323,4.309,3.686,4.286-1.5,38.859-16.626,36.588C22.684,40.646,12.244,36.492,7.9,24.5-.58,25.746-1.908,14,2.366,12.727" transform="translate(0 17.609)" fill="#f5b8a5"/>
      <path id="Fill_7" data-name="Fill 7" d="M22.142.082c-8.983-.567-13.7,2-13.7,2-.043.178.478,3.853-4.162,7.1,0,0-3.341,2.1-4.282,5.269.088.223.162.428.214.6.4,1.341,3.987,0,3.987,0A4.327,4.327,0,0,1,6.929,10.73c3.107-1.423,3.829-6.165,4.938-7.127S25.129,1.168,29.68,2.516c4.021,1.191,4.833,7.4,4.968,8.831.111-3.381-.264-5.987-1.12-6.972C30.88.163,24.594.557,22.142.082" transform="translate(8 18.261)" fill="#ea9686"/>
      <path id="Fill_9" data-name="Fill 9" d="M0,.231S6.474,2.869,7.77,7.621s-3.2,6.193-5.378,2.87-.074,6.165,1.309,7.9S6.437,21.348,9.194,21.3s6.317.239,6.512.219,16.961-13.9,16.961-13.9-7.36-2.826-11.976-2.7-9.86.893-11.508-.141S1.066-1.1,0,.231" transform="translate(8.667 33.261)" fill="#ea9686"/>
      <path id="Fill_11" data-name="Fill 11" d="M.026,0A1.61,1.61,0,0,0,1.388,1.949,1.887,1.887,0,0,0,3.333.318Z" transform="translate(36 35.217)" fill="#6b3a29"/>
      <path id="Fill_13" data-name="Fill 13" d="M.026,0A1.61,1.61,0,0,0,1.388,1.949,1.886,1.886,0,0,0,3.333.318Z" transform="translate(22.667 33.913)" fill="#6b3a29"/>
      <path id="Fill_15" data-name="Fill 15" d="M.149,2.6S3.381-2.038,6.64,1.075c2.25,2.15-1.4-.31-4.82,1.651C.232,3.639-.29,3.238.149,2.6" transform="translate(20 28.696)" fill="#6b3a29"/>
      <path id="Fill_17" data-name="Fill 17" d="M7.238,2.772S4.691-1.387.848.484c-2.654,1.292,1.488,0,4.662,2.1,1.473.98,2.074.755,1.729.185" transform="translate(34 30.652)" fill="#6b3a29"/>
      <path id="Fill_19" data-name="Fill 19" d="M3.029.426A42.121,42.121,0,0,0,4.584,5.608C5.3,7.249,1.132,7.3.172,7.08s2.4-.667,2.47-1.367S2.308-1.738,3.029.426" transform="translate(29.333 36.522)" fill="#ea9686"/>
      <path id="Fill_21" data-name="Fill 21" d="M8.622,7.174s.022-.2.037-.554a2.9,2.9,0,0,0-.025-.64,4.329,4.329,0,0,0-.141-.839,4.588,4.588,0,0,0-.308-.956,7.12,7.12,0,0,0-.5-1.011,7.181,7.181,0,0,0-.729-.958,7.7,7.7,0,0,0-.9-.852A7.526,7.526,0,0,0,5.019.71,6.764,6.764,0,0,0,3.932.257,6.391,6.391,0,0,0,2.862.046,4.19,4.19,0,0,0,1.9.014a3.755,3.755,0,0,0-.8.1A2.73,2.73,0,0,0,.5.278c-.324.117-.5.2-.5.2s.2.043.521.1a10.855,10.855,0,0,1,1.3.288,8.541,8.541,0,0,1,.815.264c.289.083.567.251.867.364.284.163.588.3.87.486.294.167.566.38.846.577.262.224.536.434.774.68.257.225.465.493.7.73.189.268.425.5.584.762.177.254.343.5.477.741a11.049,11.049,0,0,1,.638,1.214c.142.318.237.5.237.5" transform="translate(18.667 46.304)" fill="#db6f6a"/>
      <path id="Fill_23" data-name="Fill 23" d="M2.968.82A1.583,1.583,0,0,0,.685.255C-.679.943-.109,5.746,3.333,6.522A5.813,5.813,0,0,1,1.247,3.015c-.162-2,1.233-2.335,1.721-2.2" transform="translate(3.333 33.913)" fill="#ea9686"/>
      <path id="Fill_25" data-name="Fill 25" d="M5.6,1.82A6.2,6.2,0,0,1,0,.108,5.371,5.371,0,0,0,7.017,0c4.865,15.884,15.53,17.471,15.65,17.488-.211.048-.4.086-.559.108C19.95,17.881,9.82,13.3,5.6,1.82" transform="translate(3.333 41.087)" fill="#ea9686"/>
      <path id="Fill_27" data-name="Fill 27" d="M12.116.328S24.067-1.051,34.667,1.843c0,0-2.948,18.054-15.72,18.37S0,3.618,0,3.618L1.067,3.53a68.784,68.784,0,0,0,4.269,6.742c1.453,1.746,6.2-3.728,6.78-9.944" transform="translate(8 39.783)" fill="#a3d1d6"/>
      <path id="Fill_29" data-name="Fill 29" d="M0,0S6.94-.233,11.463,7.622L12,9.564l-.878.218S7.183,1.887,1.043,1.674A5.335,5.335,0,0,0,0,0" transform="translate(7.333 33.261)" fill="#a3d1d6"/>
      <path id="Fill_31" data-name="Fill 31" d="M2.392,11.4c1.464,1.778,6.235-3.8,6.823-10.131,0,0,11.493-1.34,21.975,1.353.1-.475.144-.749.144-.749C20.667-1.07,8.639.334,8.639.334,8.052,6.666,3.28,12.243,1.816,10.466A28.189,28.189,0,0,1,0,7.811,35.65,35.65,0,0,0,2.392,11.4" transform="translate(11.333 39.783)" fill="#b7e3e5"/>
      <path id="Fill_33" data-name="Fill 33" d="M12.214,18.256C19.7,18.075,23.837,11.969,26,6.868c-.165.275-4.008,6.657-10.455,8.851-6.59,2.243-11.684-1.794-12.312-3.095S7.393,6.85,6.4,0c0,0-1.477,6.866-4.835,8.759C-.352,9.839-.257,11.618.519,13.208,3.5,16.1,7.392,18.374,12.214,18.256" transform="translate(13.333 41.739)" fill="#8ac1c4"/>
      <path id="Fill_35" data-name="Fill 35" d="M0,0S.212.05.578.106,1.463.234,2.085.3l1,.1L4.2.49c.774.056,1.6.11,2.431.153l2.44.145c.391.01.769.057,1.129.074s.7.046,1.015.076c.63.056,1.157.1,1.529.153s.586.09.586.09-.208.067-.572.163a15.251,15.251,0,0,1-1.517.327,18.62,18.62,0,0,1-2.169.241,19.406,19.406,0,0,1-2.5.007A17.584,17.584,0,0,1,4.079,1.6c-.4-.063-.776-.178-1.134-.265-.359-.1-.695-.2-1-.325A8.234,8.234,0,0,1,.505.345,3.861,3.861,0,0,1,0,0" transform="translate(23.333 45)" fill="#8ac1c4"/>
      <path id="Fill_37" data-name="Fill 37" d="M0,0S.212.049.577.106,1.463.234,2.084.3l1,.1C3.441.428,3.817.458,4.2.49c.776.056,1.6.11,2.431.153L9.076.787C9.467.8,9.845.845,10.2.862s.7.046,1.016.076c.63.056,1.158.1,1.529.153s.585.09.585.09-.207.067-.57.163a15.21,15.21,0,0,1-1.519.327,18.567,18.567,0,0,1-2.168.241,19.41,19.41,0,0,1-2.5.007,17.582,17.582,0,0,1-2.5-.315c-.4-.063-.776-.178-1.134-.265-.359-.1-.694-.2-1-.325A8.41,8.41,0,0,1,.5.345,3.775,3.775,0,0,1,0,0" transform="translate(22.667 46.957)" fill="#8ac1c4"/>
      <path id="Fill_39" data-name="Fill 39" d="M0,0S.212.049.577.1,1.463.234,2.085.3l1,.1L4.2.489C4.98.544,5.806.6,6.636.643l2.44.143C9.467.8,9.845.845,10.2.862s.7.046,1.016.074c.63.057,1.158.1,1.529.155s.585.09.585.09-.207.067-.57.163a15.254,15.254,0,0,1-1.517.327,18.624,18.624,0,0,1-2.17.241,19.41,19.41,0,0,1-2.5.007A17.773,17.773,0,0,1,4.079,1.6c-.4-.063-.777-.178-1.135-.265-.357-.1-.694-.2-1-.325A8.342,8.342,0,0,1,.505.345,3.862,3.862,0,0,1,0,0" transform="translate(21.333 49.565)" fill="#8ac1c4"/>
      <path id="Fill_41" data-name="Fill 41" d="M0,0S.212.05.578.106,1.463.233,2.085.3l1,.1L4.205.49c.774.056,1.6.11,2.431.153l2.44.145c.391.01.769.057,1.129.074s.7.046,1.015.076c.63.056,1.158.1,1.529.153s.585.09.585.09-.207.067-.57.163a15.255,15.255,0,0,1-1.517.327,18.921,18.921,0,0,1-2.17.242,19.678,19.678,0,0,1-2.5.006A17.589,17.589,0,0,1,4.079,1.6c-.4-.063-.776-.178-1.134-.265-.359-.1-.7-.2-1-.325A8.236,8.236,0,0,1,.505.345,3.862,3.862,0,0,1,0,0" transform="translate(19.333 51.522)" fill="#8ac1c4"/>
      <path id="Fill_43" data-name="Fill 43" d="M4.036,2.557A21.465,21.465,0,0,1,0,5.217,26.932,26.932,0,0,0,6.923,3.5S9.458.158,1.921,0c.127.024,4.232.81,2.115,2.557" transform="translate(27.333 0.652)" fill="#5b2a1d"/>
    </g>
  </g>
</svg>
