<svg xmlns="http://www.w3.org/2000/svg" width="212.166" height="248.38" viewBox="0 0 212.166 248.38">
  <g id="illustration" transform="translate(-0.358 -1.226)">
    <path id="Fill_1" data-name="Fill 1" d="M183,77.094c0,1.275-.181,4.449-.52,9.522a87.066,87.066,0,0,1-3.379,17.609,109.022,109.022,0,0,1-8.839,21.182,73.621,73.621,0,0,1-16.9,20.7q-10.918,9.522-27.554,15.7T85.261,168a124.954,124.954,0,0,1-34.832-4.514,73.342,73.342,0,0,1-26.774-13.8,62.192,62.192,0,0,1-17.416-23.8Q0,111.373,0,90.906A105.742,105.742,0,0,1,5.459,57.348a82.941,82.941,0,0,1,16.9-29.261Q33.782,15.228,51.989,7.616T95.139,0q43.15,0,65.505,19.985T183,77.094" transform="translate(14 29)" fill="#ffe8e9" opacity="0.4"/>
    <g id="Group_133" data-name="Group 133">
      <g id="Group_132" data-name="Group 132" transform="translate(0 0.67)">
        <path id="Fill_3" data-name="Fill 3" d="M0,126.885H101.659L69.908,2.236,12.533,0Z" transform="translate(64.142 111.175)" fill="#6e8aa3"/>
        <path id="Fill_4" data-name="Fill 4" d="M70.177.279,62.961,0c-3.677,12.569-9.094,26.055-21.924,31.546-10,4.278-21.183,5.094-32.224,4.392L0,124.534H102.05Z" transform="translate(64.104 112.514)" fill="#617c90"/>
        <path id="Fill_6" data-name="Fill 6" d="M9.859,87.362c9.9-2.7,20.969-6.94,26.767-13.255,0,0,.838,14.487,15.377,23.681,10.028,6.341,8.616,19.309,6.775,26.746H102.05L70.177.279,62.96,0c-3.677,12.569-9.094,26.055-21.924,31.546-9.995,4.278-21.183,5.094-32.224,4.392L0,124.534H10.586Z" transform="translate(64.104 112.514)" fill="#5a7484"/>
        <path id="Fill_8" data-name="Fill 8" d="M18.686,26.227s6.71,4.737-.559,16.159S-6.756,65.509,2.75,90.862s39.841,24.656,40.68,55.3h64.123s-2.753-8.219-13.378-14.626-27.663-2.084-21.512-21.586S85.229,92.533,69.292,75.26,49.162,27.62,48.043,19.819,41.613-.8,28.752.039,18.686,26.227,18.686,26.227" transform="translate(104.97 90.745)" fill="#ff7d86"/>
        <path id="Fill_10" data-name="Fill 10" d="M7.193,3.471C7.584,2.23,7.977,1.077,8.365,0,6.972,2.1,5.5,4.176,4.088,6.3,2.253,9.062.029,12.327,0,15.774c-.033,4.047,2.548,7.256,5.386,9.909,6.2,5.792,14.422,8.592,21.4,13.247.368.246.726.5,1.081.753H42.083S39.329,31.465,28.7,25.057,1.043,22.973,7.193,3.471" transform="translate(170.441 197.225)" fill="#ed6672"/>
        <path id="Fill_12" data-name="Fill 12" d="M49.426,94.708c-1.95-6.368.687-11.616,2.856-17.493,2.255-6.11,6.753-14.662,2.937-25.526C52.84,44.916,48.327,44.936,43.1,40.1c-4.938-4.572-10.555-8.48-15.043-13.523-4.235-4.76-7.776-10.075-8.887-16.451A62.348,62.348,0,0,1,18.384,0c-.086.141-.165.278-.257.421C10.858,11.843-6.756,23.544,2.75,48.9s39.842,24.655,40.68,55.3H56.868a17.528,17.528,0,0,1-7.442-9.49" transform="translate(104.97 132.71)" fill="#ed6672"/>
        <path id="Fill_14" data-name="Fill 14" d="M58.071,10.455C49.754,8.145,37.294,9.9,24,6.324A183.646,183.646,0,0,1,4.573,0,64.541,64.541,0,0,1,0,8.608c3.818,2.433,36.547,23.153,47.247,25.3,12.674,2.541,24.191,8.121,31.577,3.4S66.654,20.239,58.071,10.455" transform="translate(78.906 149.202)" fill="#ffbabf"/>
        <path id="Fill_16" data-name="Fill 16" d="M57.966,7.173c-8.317-2.309-20.777-.554-34.07-4.13C20.017,2,16.578.956,13.646,0,9.144,1.914,4.582,3.678,0,5.394c4.272,2.72,36.533,23.1,47.142,25.232,12.674,2.541,24.191,8.121,31.577,3.4S66.549,16.958,57.966,7.173" transform="translate(79.011 152.484)" fill="#f5a7ae"/>
        <path id="Fill_18" data-name="Fill 18" d="M2.193,66.361c-8.108-3.343,8.388-17.274,15.1-28.417C25.066,34.2,38.2,32.062,50.649,26.2A166.3,166.3,0,0,0,70.514,15.361S69.9,8.628,72.929,5.348C74.668,3.467,78.561.052,79.4.594s6.287.5,6.184,1.9-5.949,1.482-5.949,1.482L77.184,6.469s4.581.646,9.7-3.711S93.745.074,93.47,1.895s-4.678,4.143-4.678,4.143c-.867,1.209,5.249-1.937,5.89-1.381s2.142,2.537-2.945,4.489-1.3.868,3.032-.432,3.211,1.463-3.379,4.92S95.6,11.31,95.755,13.5s-4.361,3.531-4.361,3.531-8.61,4.653-11.195,5.032-4.612.615-4.612.615S43.453,53.2,32.668,57.445C20.646,62.182,10.3,69.7,2.193,66.361" transform="translate(64.707 124.997)" fill="#ffbabf"/>
        <path id="Fill_20" data-name="Fill 20" d="M20.224,4.771A37.951,37.951,0,0,1,8.86,0C2.477,7.806-3.289,14.907,2.193,17.168,10.3,20.51,20.646,12.989,32.668,8.252a43.164,43.164,0,0,0,7.895-4.66C34.114,5.561,26.686,6.449,20.224,4.771" transform="translate(64.707 174.19)" fill="#f5a7ae"/>
        <path id="Fill_22" data-name="Fill 22" d="M72.972,0S58.993,1.671,55.638,16.159,54.8,61.013,38.583,81.629s-19.571,14.209-7.828,27.024S47.809,123.14,35.508,127.6,0,131.777,0,144.592H68.5S69.644,99.212,71.854,87.2c3.075-16.715,29.077-23.959,30.475-54.884S83.877,0,72.972,0" transform="translate(0.358 93.013)" fill="#ff7d86"/>
        <path id="Fill_24" data-name="Fill 24" d="M.022,0C-.253,2.046,2.011,4.025,6.986,9.454,18.729,22.27,24.042,23.942,11.74,28.4c-.612.221-1.251.431-1.913.632a24.456,24.456,0,0,0,9.126-2.72c5.356-3.015,6.242-9.229,1.967-13.767C15.421,6.707,7.548,2.83.022,0" transform="translate(24.126 192.211)" fill="#ed6672"/>
        <path id="Fill_26" data-name="Fill 26" d="M4.229,8.053A55.947,55.947,0,0,1,6.613,0C2.646,2.027,0,4.855,0,9.176H2.237q.9-.112,1.8-.237c.062-.3.126-.6.19-.885" transform="translate(0.358 228.429)" fill="#ed6672"/>
        <path id="Fill_28" data-name="Fill 28" d="M44.1,0a15.05,15.05,0,0,0-1.729.352c-.734,5.188-1.712,10.389-1.444,15.618.321,6.267,3.81,13.387,10.737,14.525,3.614.594,7.313,1,9.38,4.52,1.5,2.555.675,6.375.214,9.093A35.481,35.481,0,0,1,50.793,64.156c-4.8,4.766-15.057-12.193-21.779-12.966-14.174-1.63,10.9,11.407,3.27,26.617-2.877,5.735-6.285,23.758-4.59,29.731,1.445,5.092,2.631,10.916.74,16.067-4.257,11.6-17,17.241-27.942,20.831-.163.054-.329.1-.492.158H39.625S40.77,99.212,42.98,87.2c3.075-16.715,29.077-23.959,30.475-54.884S55,0,44.1,0" transform="translate(29.233 93.013)" fill="#ed6672"/>
        <path id="Fill_30" data-name="Fill 30" d="M49.611,20.561a159.284,159.284,0,0,1-18.334-6.292s.554-5.54-3.013-8.234c-2.045-1.545-1.772-2.852-3.68-4.21-.815-.581-3.841-2.77-3.816-1.359.044,2.423,2.862,5.7,2.862,5.7l2.044,3.395s-6.406-1.9-14.31-3.8C4.819,4.188.141,2.391.735,4.133s11.721,5.7,11.721,5.7C13.522,10.874,1.447,6.925.6,6.985c-1.908.136.681,2.309,8.687,4.909,5.183,1.684-3.241-.726-7.733-1.242s1.771,3.358,8.871,5.6C23.517,20.384,3.46,13.911,3.46,15c0,2.2,9.069,5.612,9.069,5.612s8.594,3.162,11.206,3.079,4.649-.207,4.649-.207,2.725,1.748,6.911,4.33a3.552,3.552,0,0,1,.485-.248c3.027-1.235,6.089-2.366,9.173-3.437q2.283-1.839,4.658-3.566" transform="translate(50.153 134.093)" fill="#ffbabf"/>
        <path id="Fill_32" data-name="Fill 32" d="M20.753,2.17C18.139,1.424,15.759.689,13.646,0,9.144,1.914,4.582,3.678,0,5.394.948,6,3.275,7.471,6.436,9.421a3.527,3.527,0,0,1,.486-.248C9.949,7.939,13.011,6.808,16.1,5.737Q18.378,3.9,20.753,2.17" transform="translate(79.011 152.483)" fill="#f5a7ae"/>
        <path id="Fill_34" data-name="Fill 34" d="M7.2,1.75S.6,2.029.325,14.009s-3.52,17.748,18.453,28.7C36.671,51.62,59.6,52.734,69.1,33.789S63.791,16.516,61.834,7.6,47.436.079,47.436.079Z" transform="translate(71.329 77.611)" fill="#0086a6"/>
        <path id="Fill_36" data-name="Fill 36" d="M21.294,33.175C-.679,22.228,2.562,16.459,2.841,4.479A24.917,24.917,0,0,1,3.32,0C1.829,1.7.449,4.713.324,10.051.045,22.031-3.2,27.8,18.777,38.747,36.671,47.662,59.6,48.776,69.1,29.832a39.748,39.748,0,0,0,1.983-4.586c-9.8,17.9-32.22,16.684-49.792,7.929" transform="translate(71.329 81.569)" fill="#006a7e"/>
        <path id="Fill_38" data-name="Fill 38" d="M.011.482S-1.277,17.755,24.445,21.934,48.77,2.99,48.21,1.039.011.482.011.482" transform="translate(80.199 78.879)" fill="#006a7e"/>
        <path id="Fill_40" data-name="Fill 40" d="M9.08,4.1s-2.839-6.686-7.1-2.971S.21,20.44,10.5,20.068,9.08,4.1,9.08,4.1" transform="translate(69.711 59.293)" fill="#f5a7ae"/>
        <path id="Fill_42" data-name="Fill 42" d="M0,2.739A5.031,5.031,0,0,1,.331.975,1.857,1.857,0,0,1,.94.167c.088-.045.181-.087.275-.126A2.009,2.009,0,0,1,1.522,0a.876.876,0,0,1,.292.043A.891.891,0,0,1,2.08.14,2.708,2.708,0,0,1,2.9.76l.291.329c.094.125.186.266.279.4a7.138,7.138,0,0,1,.466.815q.195.412.373.83c.106.28.229.558.317.843s.19.568.27.854c.168.571.327,1.144.446,1.724a31.233,31.233,0,0,1,.581,3.5l.041.379-.333.124a5.975,5.975,0,0,0-.6.257,3.9,3.9,0,0,0-.547.327,1.435,1.435,0,0,0-.374.378.312.312,0,0,0,0,.353,1.286,1.286,0,0,0,.177.212,2.225,2.225,0,0,0,.249.2,4.146,4.146,0,0,0,.589.34c.415.209.858.384,1.3.562A9.027,9.027,0,0,1,5,12.954a4.6,4.6,0,0,1-.7-.248,2.782,2.782,0,0,1-.348-.186,1.76,1.76,0,0,1-.326-.288,1.016,1.016,0,0,1-.217-.459.973.973,0,0,1,.05-.526,1.838,1.838,0,0,1,.514-.714,4.558,4.558,0,0,1,.626-.474,5.674,5.674,0,0,1,.677-.375l-.292.5c-.21-1.127-.456-2.265-.717-3.384-.138-.559-.271-1.118-.423-1.671s-.327-1.094-.5-1.634q-.14-.4-.3-.79c-.118-.242-.22-.527-.343-.738-.062-.113-.114-.227-.182-.345l-.255-.357A2.57,2.57,0,0,0,1.754.76.541.541,0,0,0,1.222.665a1.448,1.448,0,0,0-.525.5A6.689,6.689,0,0,0,0,2.739" transform="translate(70.674 63.807)" fill="#db969f"/>
        <path id="Fill_44" data-name="Fill 44" d="M4.2,4.678s2.023-7,6.689-3.872,4.052,18.936-6.2,19.905S4.2,4.678,4.2,4.678" transform="translate(122.625 58.98)" fill="#f5a7ae"/>
        <path id="Fill_46" data-name="Fill 46" d="M6.431,2.739a6.689,6.689,0,0,0-.7-1.572,1.444,1.444,0,0,0-.525-.5A.541.541,0,0,0,4.676.76a2.588,2.588,0,0,0-.513.506l-.254.357c-.067.117-.12.231-.181.345-.123.211-.226.5-.344.738-.1.261-.2.524-.3.79-.173.54-.351,1.08-.5,1.634S2.3,6.242,2.166,6.8c-.261,1.119-.508,2.257-.717,3.384l-.292-.5a5.674,5.674,0,0,1,.677.375,4.52,4.52,0,0,1,.625.474,1.833,1.833,0,0,1,.514.714.973.973,0,0,1,.05.526,1.016,1.016,0,0,1-.217.459,1.745,1.745,0,0,1-.326.288,2.776,2.776,0,0,1-.348.186,4.6,4.6,0,0,1-.7.248A9.027,9.027,0,0,1,0,13.186c.446-.177.888-.352,1.3-.562a4.178,4.178,0,0,0,.589-.34,2.278,2.278,0,0,0,.249-.2,1.286,1.286,0,0,0,.177-.212.315.315,0,0,0,0-.353,1.439,1.439,0,0,0-.374-.378,3.86,3.86,0,0,0-.547-.327,6.032,6.032,0,0,0-.6-.257l-.333-.124.041-.379a31.362,31.362,0,0,1,.58-3.5c.12-.58.279-1.153.447-1.724.079-.286.18-.57.27-.854s.211-.563.317-.843.243-.555.373-.83a7.053,7.053,0,0,1,.466-.815c.092-.134.184-.275.278-.4L3.53.76A2.713,2.713,0,0,1,4.35.14.9.9,0,0,1,4.617.047.875.875,0,0,1,4.908,0a1.992,1.992,0,0,1,.308.037c.094.038.188.081.275.126A1.851,1.851,0,0,1,6.1.975a5.019,5.019,0,0,1,.331,1.764" transform="translate(129.388 63.807)" fill="#db969f"/>
        <path id="Fill_48" data-name="Fill 48" d="M23.37.09S1.064,1.2.034,30.179s21.62,39,36.377,32.317S54.941,35.751,50.824,22.007,40.186-1.024,23.37.09" transform="translate(77.337 34.324)" fill="#ffbabf"/>
        <path id="Fill_50" data-name="Fill 50" d="M19.836,29.527S-2.17,28.089.175,14.609,15.992,2.805,19.961,1.367,37.333-3.005,40.58,9.4,27.773,34.739,18.032,32.762s1.8-3.235,1.8-3.235" transform="translate(79.837 1.102)" fill="#00395c"/>
        <path id="Fill_52" data-name="Fill 52" d="M21.385,6.749A11.586,11.586,0,0,0,19.571,5.01q-.977-.8-2.027-1.492A22.438,22.438,0,0,0,13.1,1.2,11.328,11.328,0,0,0,8.229.4,7.416,7.416,0,0,0,5.858,1,7.6,7.6,0,0,0,3.829,2.359,9.735,9.735,0,0,0,2.256,4.246,13.779,13.779,0,0,0,1.1,6.431a10.432,10.432,0,0,0-.516,4.841c.071.827.2,1.646.328,2.48s.229,1.659.4,2.471a11.8,11.8,0,0,0,.7,2.358A6.491,6.491,0,0,0,3.339,20.6l.01.01.006.007a10.847,10.847,0,0,0,4.1,2.786c.386.173.778.339,1.171.5L9.8,24.39c.8.3,1.6.582,2.41.835.405.128.813.242,1.224.348s.823.2,1.241.273.834.137,1.255.19c.418.034.851.074,1.27.072a31.235,31.235,0,0,0,5.082-.487A31.266,31.266,0,0,1,17.2,26.3c-.435.017-.854-.006-1.288-.025-.429-.039-.859-.075-1.283-.152-.427-.061-.846-.159-1.266-.251s-.834-.207-1.246-.327c-.824-.238-1.642-.508-2.445-.79l-1.2-.469c-.4-.156-.8-.314-1.192-.482a11.059,11.059,0,0,1-4.3-2.88L3,20.94A6.978,6.978,0,0,1,1.55,18.781,12.256,12.256,0,0,1,.8,16.328C.621,15.5.5,14.658.38,13.829S.13,12.163.061,11.317A10.914,10.914,0,0,1,.648,6.242a14.34,14.34,0,0,1,1.21-2.257A10.206,10.206,0,0,1,3.517,2.021,7.685,7.685,0,0,1,5.686.614,7.811,7.811,0,0,1,8.2.02a11.641,11.641,0,0,1,5.006.907,21.111,21.111,0,0,1,4.427,2.462q1.032.733,1.99,1.561a11.657,11.657,0,0,1,1.763,1.8" transform="translate(80.272 4.109)" fill="#00395c"/>
        <path id="Fill_54" data-name="Fill 54" d="M20.688,4.6a11.612,11.612,0,0,0-2.091-1.4Q17.5,2.6,16.339,2.09A22.491,22.491,0,0,0,11.557.582,11.32,11.32,0,0,0,6.621.641,7.406,7.406,0,0,0,4.392,1.648a7.59,7.59,0,0,0-1.76,1.688A9.722,9.722,0,0,0,1.414,5.468,13.825,13.825,0,0,0,.66,7.82,10.428,10.428,0,0,0,1,12.676c.215.8.488,1.586.757,2.385s.516,1.594.823,2.363a11.752,11.752,0,0,0,1.106,2.2,6.509,6.509,0,0,0,1.66,1.754l.012.008.007.007a10.863,10.863,0,0,0,4.529,2.028c.411.1.825.2,1.242.291l1.242.275c.841.156,1.676.294,2.52.4.421.055.843.1,1.266.13s.846.058,1.27.052.846-.011,1.27-.031c.416-.04.85-.076,1.263-.151a31.362,31.362,0,0,0,4.919-1.364A31.327,31.327,0,0,1,20,24.58c-.425.093-.842.143-1.273.2-.429.036-.859.076-1.289.073-.431.014-.861-.01-1.29-.027s-.858-.058-1.285-.1c-.852-.091-1.705-.215-2.546-.353l-1.264-.253c-.419-.084-.839-.17-1.258-.267a11.065,11.065,0,0,1-4.743-2.087l.019.015a7,7,0,0,1-1.8-1.874A12.264,12.264,0,0,1,2.1,17.618c-.32-.789-.583-1.592-.85-2.388s-.538-1.6-.754-2.418a10.924,10.924,0,0,1-.312-5.1,14.3,14.3,0,0,1,.8-2.433A10.207,10.207,0,0,1,2.266,3.057,7.676,7.676,0,0,1,4.156,1.294,7.8,7.8,0,0,1,6.526.272a11.643,11.643,0,0,1,5.088.022A21.151,21.151,0,0,1,16.4,1.948q1.144.544,2.231,1.191A11.61,11.61,0,0,1,20.688,4.6" transform="translate(78.934 6.285)" fill="#00395c"/>
        <path id="Fill_56" data-name="Fill 56" d="M0,6.707l.328-.579c.218-.375.519-.936.944-1.626A13.2,13.2,0,0,1,3.016,2.156,6.5,6.5,0,0,1,6.244.211a9.392,9.392,0,0,1,4.5.148,22.287,22.287,0,0,1,4.715,1.779A10.62,10.62,0,0,1,19.5,5.705a10.11,10.11,0,0,1,1.17,2.55,24.9,24.9,0,0,1,.678,2.711,21.83,21.83,0,0,1,.341,5.565,14.565,14.565,0,0,1-1.341,5.262c-.174.41-.429.778-.638,1.163-.252.36-.5.722-.769,1.056l-.429.481-.213.238c-.122.113-.169.145-.257.221l-.466.392c-.162.127-.338.246-.505.368a15.916,15.916,0,0,1-4.1,2.048A31.655,31.655,0,0,1,9.262,28.77c-1.115.24-2.089.411-2.889.555l-2.506.453-.158-.85,2.52-.427c.8-.135,1.769-.294,2.866-.519a30.819,30.819,0,0,0,3.626-.943,15.218,15.218,0,0,0,3.928-1.9c.156-.111.314-.213.471-.333l.47-.387.212-.176.2-.221.406-.445c.259-.309.491-.647.732-.981.2-.361.445-.7.614-1.089a13.962,13.962,0,0,0,1.334-5.021,21.271,21.271,0,0,0-.272-5.422A24.371,24.371,0,0,0,20.2,8.39a9.693,9.693,0,0,0-1.07-2.45,10.236,10.236,0,0,0-3.839-3.5A21.988,21.988,0,0,0,10.678.6,9.186,9.186,0,0,0,6.286.373a6.364,6.364,0,0,0-3.2,1.852,13.135,13.135,0,0,0-1.776,2.3C.874,5.208.563,5.763.338,6.134L0,6.707" transform="translate(100.395 0.556)" fill="#00395c"/>
        <path id="Fill_58" data-name="Fill 58" d="M2.62,27.306l.559-.049c.355-.042.921-.055,1.551-.168L5.8,26.925l1.256-.281c.446-.112.9-.274,1.4-.421.488-.164.974-.4,1.5-.607.493-.267,1.023-.524,1.534-.849A13.216,13.216,0,0,0,13,23.655l.729-.628.718-.755a17.8,17.8,0,0,0,1.262-1.643,22.736,22.736,0,0,0,2.088-3.885A10.2,10.2,0,0,0,18.836,12.4a8.278,8.278,0,0,0-.394-2.214,10.621,10.621,0,0,0-.953-2.043,14.127,14.127,0,0,0-2.9-3.333,17.752,17.752,0,0,0-1.707-1.282l-.861-.589c-.285-.19-.589-.332-.876-.5l-.863-.47L9.4,1.588c-.29-.118-.567-.259-.855-.352L7.694.964A12.2,12.2,0,0,0,6.077.535L5.318.368l-.727-.1A23.326,23.326,0,0,0,2.144.042C1.463,0,.926.032.56.023H0L.56.015c.365,0,.9-.034,1.584,0A23.306,23.306,0,0,1,4.6.208L5.33.3l.764.157L6.9.619c.276.053.546.153.829.23L8.59,1.1c.292.087.574.222.871.334l.9.359.888.456c.3.161.613.3.9.486l.875.567a18.247,18.247,0,0,1,1.763,1.258,14.49,14.49,0,0,1,3.065,3.35,11.122,11.122,0,0,1,1.05,2.113,8.873,8.873,0,0,1,.477,2.345,4.46,4.46,0,0,1,.012.6,4.73,4.73,0,0,1-.024.606,7.831,7.831,0,0,1-.194,1.186c-.051.2-.071.36-.147.582l-.179.559c-.112.375-.252.738-.389,1.1a23.49,23.49,0,0,1-2.014,4.1,18.669,18.669,0,0,1-1.292,1.81l-.691.78c-.283.276-.524.49-.783.733A14.312,14.312,0,0,1,12.1,25.686c-.537.37-1.1.669-1.62.975-.551.248-1.072.515-1.585.715-.519.183-1.007.38-1.477.522l-1.326.364c-.417.094-.8.163-1.155.234-.709.156-1.22.187-1.588.248l-.556.075Z" transform="translate(104.724 3.105)" fill="#00395c"/>
        <path id="Fill_60" data-name="Fill 60" d="M0,13.806s.277-.456.827-1.211A29.109,29.109,0,0,1,3.308,9.621a24.506,24.506,0,0,1,1.9-1.777A14.892,14.892,0,0,1,7.6,6.176a9.574,9.574,0,0,1,2.961-1.084,6.055,6.055,0,0,1,3.273.29,5.037,5.037,0,0,1,.755.356,5,5,0,0,1,.7.444l.644.483a7.637,7.637,0,0,0,.628.459,5.4,5.4,0,0,0,2.708,1.043A3.221,3.221,0,0,0,20.6,7.935a3.733,3.733,0,0,0,1.1-.741,6.771,6.771,0,0,0,1.394-2.069A12.877,12.877,0,0,0,24.1,1.455,5.981,5.981,0,0,0,24.14,0a3.3,3.3,0,0,1,.054.379,6.639,6.639,0,0,1,.017,1.084,12.053,12.053,0,0,1-.832,3.785,7.1,7.1,0,0,1-1.394,2.233,4.154,4.154,0,0,1-1.2.871,3.474,3.474,0,0,1-1.537.3,5.879,5.879,0,0,1-2.989-1.1c-.237-.145-.44-.307-.651-.465s-.433-.319-.633-.464a4.512,4.512,0,0,0-.651-.4,4.71,4.71,0,0,0-.693-.318,5.5,5.5,0,0,0-2.987-.3,9.063,9.063,0,0,0-2.814,1,19.979,19.979,0,0,0-4.3,3.242A35.314,35.314,0,0,0,.912,12.661C.318,13.377,0,13.806,0,13.806" transform="translate(110.419 16.356)" fill="#00395c"/>
        <path id="Fill_62" data-name="Fill 62" d="M0,4.585s.42-.329,1.2-.842a29.161,29.161,0,0,1,3.375-1.91,24.509,24.509,0,0,1,2.4-1A14.885,14.885,0,0,1,9.813.118a9.585,9.585,0,0,1,3.154.027,6.047,6.047,0,0,1,2.959,1.421,5.047,5.047,0,0,1,.581.6,5.058,5.058,0,0,1,.5.662l.431.677c.138.224.274.455.424.651a5.382,5.382,0,0,0,2.165,1.927,3.21,3.21,0,0,0,1.331.253,3.745,3.745,0,0,0,1.288-.308A6.782,6.782,0,0,0,24.679,4.58,12.857,12.857,0,0,0,26.926,1.5,5.989,5.989,0,0,0,27.476.153a3.157,3.157,0,0,1-.084.374,6.6,6.6,0,0,1-.368,1.021A12.1,12.1,0,0,1,24.906,4.8a7.126,7.126,0,0,1-2.095,1.6,4.16,4.16,0,0,1-1.43.394,3.477,3.477,0,0,1-1.543-.264,5.855,5.855,0,0,1-2.408-2.079c-.171-.218-.3-.441-.446-.664s-.291-.451-.428-.656a4.536,4.536,0,0,0-.466-.6,4.7,4.7,0,0,0-.535-.541A5.494,5.494,0,0,0,12.864.653,9.09,9.09,0,0,0,9.879.6,20.038,20.038,0,0,0,4.708,2.117,35.348,35.348,0,0,0,1.259,3.834C.449,4.3,0,4.585,0,4.585" transform="translate(103.085 29.038)" fill="#00395c"/>
        <path id="Fill_64" data-name="Fill 64" d="M0,7.306l.167-.732C.244,6.336.3,6.088.4,5.855a6.513,6.513,0,0,1,.309-.691A4.886,4.886,0,0,1,1.1,4.51L1.312,4.2l.251-.288a4.847,4.847,0,0,1,.542-.541,5.194,5.194,0,0,1,.606-.47,4.84,4.84,0,0,1,.668-.379c.449-.225.878-.482,1.349-.675s.923-.422,1.391-.61L7.526.679l1.425-.5.01,0,.007,0,.6-.117c.2-.026.408-.034.614-.051s.411.015.617.023.407.068.611.1c.2.052.395.12.592.18l.565.251L13.1.868l.491.365c.18.165.291.281.439.424a4.589,4.589,0,0,1,.4.487,5.555,5.555,0,0,1,.59,1.079c.161.369.282.747.411,1.111s.253.728.416,1.069a7.187,7.187,0,0,0,.516,1.016,2.943,2.943,0,0,0,.319.438,2.911,2.911,0,0,0,.378.4,2.756,2.756,0,0,0,.429.345,2.613,2.613,0,0,0,.472.283,2.58,2.58,0,0,0,.507.218,2.715,2.715,0,0,0,.533.148c.351.073.775.146,1.144.207s.762.126,1.14.152A4.7,4.7,0,0,0,22.4,8.588a2.652,2.652,0,0,0,.527-.132,3.9,3.9,0,0,0,.468-.248h0l.018-.014.365-.261.321-.325.272-.371c.087-.126.148-.269.225-.4a2.739,2.739,0,0,0,.173-.429,2.037,2.037,0,0,0,.118-.447,1.8,1.8,0,0,0,.062-.458,2.1,2.1,0,0,0-.005-.462,4.045,4.045,0,0,0-.2-.914,1.13,1.13,0,0,0-.226-.381.413.413,0,0,0-.384-.1,1.035,1.035,0,0,0-.394.222,3.2,3.2,0,0,0-.329.343,5.151,5.151,0,0,0-.532.8,5.191,5.191,0,0,1,.478-.841,2.829,2.829,0,0,1,.317-.374,1.147,1.147,0,0,1,.428-.268.551.551,0,0,1,.514.11,1.259,1.259,0,0,1,.288.426,4.23,4.23,0,0,1,.265.952,2.281,2.281,0,0,1,.031.5,2.01,2.01,0,0,1-.041.5,2.165,2.165,0,0,1-.11.487,2.99,2.99,0,0,1-.173.47c-.076.148-.139.3-.229.446l-.286.415-.346.373-.411.314.02-.014a3.848,3.848,0,0,1-.553.319,3.026,3.026,0,0,1-.6.173,5.1,5.1,0,0,1-1.218.066,10.4,10.4,0,0,1-1.188-.126c-.4-.063-.752-.119-1.169-.2a3.082,3.082,0,0,1-.6-.16,3,3,0,0,1-.572-.238,2.988,2.988,0,0,1-.534-.313,3.128,3.128,0,0,1-.487-.383,3.331,3.331,0,0,1-.43-.445,3.477,3.477,0,0,1-.373-.5,7.645,7.645,0,0,1-.553-1.062c-.177-.362-.306-.739-.445-1.106s-.261-.733-.406-1.08a5.051,5.051,0,0,0-.518-.975,3.786,3.786,0,0,0-.334-.426l-.4-.4L12.8,1.3l-.477-.289L11.82.782c-.176-.054-.35-.117-.528-.165-.182-.03-.362-.075-.545-.1s-.369-.029-.555-.027-.371.019-.556.041l-.552.1L9.1.631,7.68,1.107l-1.412.5c-.469.17-.922.37-1.385.555s-.908.419-1.362.629a4.652,4.652,0,0,0-.651.341,6.287,6.287,0,0,0-.6.426,4.668,4.668,0,0,0-.548.493l-.257.265-.226.292a4.746,4.746,0,0,0-.41.617,6.183,6.183,0,0,0-.339.663c-.1.225-.18.462-.274.694Z" transform="translate(110.629 24.11)" fill="#00395c"/>
        <path id="Fill_66" data-name="Fill 66" d="M24.617,13.806s-.324-.43-.93-1.148A35.385,35.385,0,0,0,21.02,9.833,20.251,20.251,0,0,0,16.652,6.6a9.315,9.315,0,0,0-2.847-.991,5.712,5.712,0,0,0-3.022.287,6.045,6.045,0,0,0-1.364.713c-.2.145-.428.3-.642.462s-.419.322-.659.466A6.09,6.09,0,0,1,5.1,8.648a3.466,3.466,0,0,1-1.554-.272,4.219,4.219,0,0,1-1.23-.85A6.982,6.982,0,0,1,.879,5.292,10.665,10.665,0,0,1,.237,3.167a12.224,12.224,0,0,1-.221-1.69A6.537,6.537,0,0,1,.031.383,3.275,3.275,0,0,1,.086,0,5.908,5.908,0,0,0,.124,1.468a12.605,12.605,0,0,0,1.045,3.7A6.649,6.649,0,0,0,2.6,7.23a3.3,3.3,0,0,0,2.477.931A5.6,5.6,0,0,0,7.818,7.1c.214-.129.424-.3.637-.462s.424-.314.654-.482a6.509,6.509,0,0,1,1.477-.791,6.247,6.247,0,0,1,3.3-.278,9.8,9.8,0,0,1,2.993,1.078,15.081,15.081,0,0,1,2.43,1.664,24.607,24.607,0,0,1,1.93,1.777,29.3,29.3,0,0,1,2.53,2.98c.561.757.844,1.215.844,1.215" transform="translate(77.196 18.238)" fill="#00395c"/>
        <path id="Fill_68" data-name="Fill 68" d="M25.612,7.308l-.223-.725c-.1-.233-.173-.472-.281-.7a6.094,6.094,0,0,0-.347-.667A4.6,4.6,0,0,0,24.34,4.6a4.134,4.134,0,0,0-.493-.558,5.022,5.022,0,0,0-.559-.491,6.916,6.916,0,0,0-.611-.423,5.474,5.474,0,0,0-.662-.337c-.459-.211-.91-.454-1.381-.626s-.927-.383-1.4-.552L17.8,1.11,16.363.636l.018,0-.559-.1C15.636.517,15.448.513,15.26.5s-.374.019-.561.025-.368.065-.552.095c-.181.045-.357.111-.535.164-.173.071-.342.154-.513.229l-.485.287-.455.338c-.109.1-.272.265-.407.394a3.358,3.358,0,0,0-.343.427,4.874,4.874,0,0,0-.531.98c-.15.349-.28.716-.417,1.089s-.275.75-.456,1.115c-.086.185-.172.37-.264.541a3.5,3.5,0,0,1-.306.528,3.38,3.38,0,0,1-.384.5,3.173,3.173,0,0,1-.441.443,2.983,2.983,0,0,1-.5.38l-.262.172-.282.137-.283.135-.3.1a3.067,3.067,0,0,1-.6.156l-.591.1-.589.093a10.618,10.618,0,0,1-1.2.124,5.259,5.259,0,0,1-1.23-.067,3.122,3.122,0,0,1-.608-.173A3.892,3.892,0,0,1,1.606,8.5l.02.014L1.211,8.2.86,7.83c-.1-.135-.194-.277-.291-.415s-.155-.3-.234-.447A2.92,2.92,0,0,1,.159,6.5a2.091,2.091,0,0,1-.113-.489A2,2,0,0,1,0,5.508a2.241,2.241,0,0,1,.033-.5,4.16,4.16,0,0,1,.271-.956,1.294,1.294,0,0,1,.3-.424.566.566,0,0,1,.519-.1,1.153,1.153,0,0,1,.431.267,2.819,2.819,0,0,1,.321.373,5.228,5.228,0,0,1,.487.842,5.141,5.141,0,0,0-.541-.8,3.219,3.219,0,0,0-.333-.342,1.065,1.065,0,0,0-.4-.221A.426.426,0,0,0,.7,3.74a1.139,1.139,0,0,0-.232.379,3.97,3.97,0,0,0-.208.917A2.048,2.048,0,0,0,.254,5.5a1.786,1.786,0,0,0,.063.459,2.014,2.014,0,0,0,.121.448,2.609,2.609,0,0,0,.176.43c.078.134.139.278.228.4l.278.371.326.323.369.26.018.013h0a3.884,3.884,0,0,0,.476.248,2.778,2.778,0,0,0,.534.132,4.861,4.861,0,0,0,1.133.024c.384-.026.767-.09,1.155-.151l.582-.1.576-.107a2.624,2.624,0,0,0,.541-.146l.265-.09.25-.124.25-.124.231-.156a2.54,2.54,0,0,0,.438-.343,2.722,2.722,0,0,0,.388-.4,2.832,2.832,0,0,0,.329-.439,3.031,3.031,0,0,0,.282-.5c.092-.177.171-.351.249-.525.167-.344.292-.71.427-1.077s.257-.749.422-1.122a5.42,5.42,0,0,1,.607-1.086,4.159,4.159,0,0,1,.4-.487c.152-.143.263-.261.449-.423l.5-.363.537-.311c.191-.083.379-.172.572-.248.2-.059.4-.129.6-.177s.41-.08.617-.1.416-.029.624-.022.415.025.619.052L16.5.17l.007,0,.011,0,1.441.5,1.424.552c.474.186.94.406,1.409.607s.913.447,1.367.673a5.669,5.669,0,0,1,.679.375,5.514,5.514,0,0,1,.617.468,5.148,5.148,0,0,1,.554.54,4.316,4.316,0,0,1,.48.6,4.7,4.7,0,0,1,.4.656,6.113,6.113,0,0,1,.318.7c.1.234.159.484.239.724Z" transform="translate(75.988 25.99)" fill="#00395c"/>
        <path id="Fill_70" data-name="Fill 70" d="M1.263,37.532S-5.278,17.321,11.414,5.274c18.272-13.187,34.1,1.982,38.5,6.315,5.1,5.026,7.273,18.2,4.08,32.317l-1.98-18.3s-6.18-2.691-6.89-11.049c0,0-22.879-9.868-36.366,1.857,0,0-.792,10.473-6.291,14,0,0,.93,4.14-1.2,7.112" transform="translate(75.715 28.397)" fill="#003d69"/>
        <path id="Fill_72" data-name="Fill 72" d="M47.557,11.246S41.763,21.5,18.987,21.287c0,0,9.59-2.51,14.585-5.439,0,0-14.185,4.393-19.38,5.857l6.193-4.6S.007,17.94,4.4,47.015a38.788,38.788,0,0,1-4.4-17.361C-.393,10.2,16.989-5.488,31.174,1.834s16.383,9.413,16.383,9.413" transform="translate(74.573 30.001)" fill="#003d69"/>
        <path id="Fill_74" data-name="Fill 74" d="M24.374,0s-.031.1-.107.292a6.124,6.124,0,0,1-.387.793,11.313,11.313,0,0,1-.752,1.151A11.653,11.653,0,0,1,21.95,3.579a17.572,17.572,0,0,1-1.587,1.4c-.294.235-.622.44-.943.671A8.478,8.478,0,0,1,18.4,6.3L17.3,6.9c-.37.2-.77.358-1.159.543s-.782.37-1.191.522l-1.232.445a24.85,24.85,0,0,1-2.5.732c-.417.1-.825.23-1.238.312l-1.224.231a22.491,22.491,0,0,1-2.325.37l-2.1.225c-.646.09-1.247.078-1.776.1l-1.371.045L0,10.459l1.187-.133,1.361-.141c.524-.063,1.119-.094,1.76-.205l2.07-.313c.739-.088,1.5-.29,2.291-.44l1.207-.246c.407-.086.808-.218,1.217-.326A24.681,24.681,0,0,0,13.545,7.9l1.218-.42c.4-.143.785-.333,1.175-.5s.779-.322,1.145-.517l1.078-.58a10.912,10.912,0,0,0,1.015-.607c.323-.211.655-.4.951-.616A17.25,17.25,0,0,0,21.738,3.36a8.074,8.074,0,0,0,.663-.641c.2-.214.4-.408.569-.608a11.389,11.389,0,0,0,.82-1.08,7.851,7.851,0,0,0,.45-.75C24.334.1,24.374,0,24.374,0" transform="translate(96.357 42.293)" fill="#003d69"/>
        <path id="Fill_76" data-name="Fill 76" d="M5.636,0s-.21.375-.549,1.043-.8,1.636-1.311,2.81C3.523,4.442,3.254,5.082,3,5.77s-.509,1.417-.768,2.173-.492,1.547-.7,2.36-.39,1.642-.549,2.476S.7,14.454.615,15.285c-.042.415-.084.828-.1,1.237s-.041.813-.038,1.211c-.013.4.008.788.018,1.17s.033.757.063,1.12.066.716.116,1.056.091.669.159.981c.111.629.261,1.194.385,1.7.14.5.288.93.4,1.286l.422,1.1-.521-1.061c-.139-.349-.318-.771-.5-1.265a15.727,15.727,0,0,1-.491-1.7c-.083-.314-.147-.645-.205-.99s-.127-.7-.165-1.07A17.338,17.338,0,0,1,0,17.733q-.013-.609.022-1.235c.01-.418.046-.838.083-1.262.071-.849.2-1.7.343-2.557.174-.847.363-1.689.594-2.507s.48-1.616.739-2.38A38.431,38.431,0,0,1,3.5,3.726C4.06,2.564,4.61,1.638,4.994.992S5.636,0,5.636,0" transform="translate(78.335 48.987)" fill="#003d69"/>
        <path id="Fill_78" data-name="Fill 78" d="M.8,0S.867.325.964.9s.234,1.39.351,2.378.259,2.14.345,3.381.156,2.567.183,3.9c0,1.329-.034,2.659-.125,3.9a23.825,23.825,0,0,1-.491,3.38A11.513,11.513,0,0,1,.857,19.15a8.1,8.1,0,0,1-.4.975,3.853,3.853,0,0,1-.33.59l-.127.2L.1,20.7a5.185,5.185,0,0,0,.259-.618,8.16,8.16,0,0,0,.3-.991c.1-.389.18-.832.265-1.317a30.831,30.831,0,0,0,.32-3.351c.068-1.231.079-2.55.053-3.867,0-1.319-.046-2.638-.11-3.874S1.081,4.292,1.011,3.3C.884,1.321.8,0,.8,0" transform="translate(127.124 52.961)" fill="#003d69"/>
        <path id="Fill_80" data-name="Fill 80" d="M2.967.258C2.755.213,2.542.17,2.33.139A2.762,2.762,0,0,0,1.695.113,1.226,1.226,0,0,0,1.114.3,1.13,1.13,0,0,0,.88.491,1.541,1.541,0,0,0,.693.736a1.448,1.448,0,0,0-.131.271A1.75,1.75,0,0,0,.471,1.3a3.829,3.829,0,0,0-.1.616A10,10,0,0,0,.339,3.187V3.174c.061.326.109.654.179.977.1.317.194.636.306.948l.408.909.488.869L2.3,7.69c.214.253.438.5.656.746.113.12.244.221.365.334l.369.329c.128.1.27.184.4.278l.407.273.012.008.009.005.349.2a3.337,3.337,0,0,0,.369.16,2.2,2.2,0,0,0,.386.119,2.444,2.444,0,0,0,.4.075,5.71,5.71,0,0,0,.841.051l.872-.008H8.2c.147.014.287.016.441.038a3.163,3.163,0,0,1,.482.122,2.417,2.417,0,0,1,.436.2,2.618,2.618,0,0,1,.393.261,4.266,4.266,0,0,1,.35.3c.219.208.425.419.621.636l.014.015,0,0,.28.424.237.448a6.946,6.946,0,0,1,.348.942,8.754,8.754,0,0,1,.2.973c.046.327.076.655.095.982.054,1.312-.078,2.6-.144,3.9-.033-.648-.033-1.3-.042-1.945s-.037-1.293-.1-1.932q-.048-.478-.133-.949a8.524,8.524,0,0,0-.234-.921,6.6,6.6,0,0,0-.364-.867l-.236-.4-.272-.377.016.019A5.879,5.879,0,0,0,9.323,11.04a1.919,1.919,0,0,0-.361-.16,2.947,2.947,0,0,0-.367-.091c-.135-.018-.289-.02-.432-.031l-.416.008-.881.021a6.256,6.256,0,0,1-.908-.043,2.857,2.857,0,0,1-.459-.078,2.7,2.7,0,0,1-.452-.132,3.148,3.148,0,0,1-.432-.192l-.4-.243.02.012-.439-.3c-.144-.1-.3-.2-.432-.308l-.39-.355c-.127-.121-.265-.233-.384-.361-.227-.266-.461-.527-.681-.8l-.593-.861-.5-.917C.674,5.892.554,5.564.424,5.243c-.1-.332-.185-.672-.278-1.006C.086,3.892.049,3.544,0,3.2V3.187A10.32,10.32,0,0,1,.087,1.879a3.379,3.379,0,0,1,.148-.65A1.931,1.931,0,0,1,.36.912a1.776,1.776,0,0,1,.173-.3A1.707,1.707,0,0,1,.756.362a1.3,1.3,0,0,1,.28-.2A1.367,1.367,0,0,1,1.688,0a2.5,2.5,0,0,1,.653.078c.212.052.419.115.625.179" transform="translate(62.823 42.453)" fill="#003d69"/>
        <path id="Fill_82" data-name="Fill 82" d="M16.126,7.288l-.228,0-.274,0c-.107-.011-.231-.037-.371-.061A3.584,3.584,0,0,1,14.3,6.88a5.4,5.4,0,0,1-1.083-.752c-.37-.31-.73-.686-1.114-1.066S11.32,4.25,10.929,3.81,10.118,2.93,9.681,2.5a9.658,9.658,0,0,0-1.434-1.14A5.074,5.074,0,0,0,6.634.6,4.892,4.892,0,0,0,4.907.538,8.034,8.034,0,0,0,3.3.932c-.242.091-.5.206-.7.289-.218.13-.445.246-.633.374a5.66,5.66,0,0,0-.989.775A4.417,4.417,0,0,0,.4,3.16c-.136.238-.236.43-.3.564l-.1.2.074-.215a5.255,5.255,0,0,1,.232-.6A4.51,4.51,0,0,1,.82,2.239a4.715,4.715,0,0,1,.974-.9c.2-.149.4-.27.617-.415.259-.13.481-.243.741-.36A6.7,6.7,0,0,1,4.841.071,5.384,5.384,0,0,1,6.749.1a4.62,4.62,0,0,1,.943.328c.147.073.272.128.436.217l.417.26a10.122,10.122,0,0,1,1.49,1.232c.443.451.858.909,1.247,1.359.773.891,1.471,1.754,2.14,2.4a6.624,6.624,0,0,0,.979.8,3.414,3.414,0,0,0,.876.423l.351.1.272.033.226.027" transform="translate(61.493 53.928)" fill="#003d69"/>
        <path id="Fill_84" data-name="Fill 84" d="M0,15.192c.232-.744.487-1.483.782-2.208a13.968,13.968,0,0,1,1.04-2.115A8.829,8.829,0,0,1,2.5,9.893a6,6,0,0,1,.837-.868A4.2,4.2,0,0,1,3.83,8.66a4.483,4.483,0,0,1,.542-.3,5.615,5.615,0,0,1,.589-.2c.2-.044.411-.069.617-.1l-.044.007.611-.149L6.771,7.8a5.054,5.054,0,0,1,1.29-.016c.448.029.829.15,1.222.2A2.678,2.678,0,0,0,10.4,7.938a4.044,4.044,0,0,0,1.014-.53,4.431,4.431,0,0,0,.424-.358,2.921,2.921,0,0,0,.343-.443,2.627,2.627,0,0,0,.389-1.045,3.646,3.646,0,0,0-.028-1.141,4.746,4.746,0,0,0-.37-1.105,5.38,5.38,0,0,0-.612-1.006,4.164,4.164,0,0,0-.385-.449l-.1-.108a1.048,1.048,0,0,0-.1-.077l-.248-.183a5.227,5.227,0,0,0-.5-.349L9.694.872a3.269,3.269,0,0,0-.552-.23C8.951.576,8.765.5,8.569.443A7.429,7.429,0,0,0,7.385.187,1.054,1.054,0,0,0,6.4.666a3.68,3.68,0,0,0-.408,1.14A3.452,3.452,0,0,1,6.312.611,1.2,1.2,0,0,1,7.4,0,7.755,7.755,0,0,1,8.64.182c.2.045.4.121.6.18a3.488,3.488,0,0,1,.591.219l.581.275a5.392,5.392,0,0,1,.522.334l.255.172a1.27,1.27,0,0,1,.147.106l.114.111a4.651,4.651,0,0,1,.436.466,5.036,5.036,0,0,1,.7,1.069,5.207,5.207,0,0,1,.425,1.214,4.138,4.138,0,0,1,.048,1.3,3.117,3.117,0,0,1-.444,1.246,3.406,3.406,0,0,1-.4.533,5.055,5.055,0,0,1-.51.441,4.153,4.153,0,0,1-1.16.606A3.208,3.208,0,0,1,9.209,8.5C8.786,8.444,8.376,8.314,8,8.291a4.561,4.561,0,0,0-1.167,0l-.59.093-.589.135h0l-.042.007c-.18.029-.361.047-.54.082-.172.059-.351.1-.519.171a4.11,4.11,0,0,0-.494.247,3.77,3.77,0,0,0-.461.315,5.654,5.654,0,0,0-.819.782,8.658,8.658,0,0,0-.694.913,17.9,17.9,0,0,0-1.139,2.02c-.339.7-.64,1.418-.945,2.136" transform="translate(129.522 46.136)" fill="#003d69"/>
        <path id="Fill_86" data-name="Fill 86" d="M0,3.481.37,2.93l.2-.287c.08-.1.177-.2.276-.31a4.652,4.652,0,0,1,.719-.7l.45-.36c.159-.121.345-.213.525-.326A6.059,6.059,0,0,1,3.755.372,4.814,4.814,0,0,1,4.441.185,3.409,3.409,0,0,1,5.16.056L5.9,0c.249,0,.5.03.748.045A3.812,3.812,0,0,1,8.118.428a4.614,4.614,0,0,1,1.209.816,5.6,5.6,0,0,1,.887,1.009,8.009,8.009,0,0,1,.615,1.019,8.115,8.115,0,0,1,.618,1.65c.06.2.084.369.108.479s.033.17.033.17-.08-.229-.242-.616a10.4,10.4,0,0,0-.785-1.535A7.644,7.644,0,0,0,9.9,2.494a6.706,6.706,0,0,0-.887-.888A4.579,4.579,0,0,0,7.9.905,3.3,3.3,0,0,0,6.6.585C6.366.569,6.135.539,5.9.534L5.217.577a3.737,3.737,0,0,0-.67.1A4.313,4.313,0,0,0,3.9.827a7.406,7.406,0,0,0-1.171.463c-.178.094-.363.167-.522.27l-.455.31a6.57,6.57,0,0,0-.757.6c-.109.094-.216.179-.308.266L.453,3,0,3.481" transform="translate(129.721 56.383)" fill="#003d69"/>
        <path id="Fill_88" data-name="Fill 88" d="M0,1.36S8.947-.451,9.086.106,5.312,3.868,5.312,3.868,3.355,4.982,0,1.36" transform="translate(101.989 77.723)" fill="#ffa1b3"/>
        <path id="Fill_90" data-name="Fill 90" d="M0,6.408A7.5,7.5,0,0,1,.806,5.234a11.762,11.762,0,0,1,.932-1A14.589,14.589,0,0,1,3.849,2.553L3.626,3.6a13.01,13.01,0,0,1-.707-1.715,8.855,8.855,0,0,1-.25-.916A6.224,6.224,0,0,1,2.516,0a6.182,6.182,0,0,1,.756.631,8.927,8.927,0,0,1,.659.686,13.05,13.05,0,0,1,1.11,1.489l.363.564-.587.486A14.63,14.63,0,0,1,2.6,5.382a11.982,11.982,0,0,1-1.236.6A7.563,7.563,0,0,1,0,6.408" transform="translate(106.881 75.182)" fill="#db969f"/>
        <path id="Fill_92" data-name="Fill 92" d="M12.861,2.229c0,1.231-2.879,2.229-6.431,2.229S0,3.46,0,2.229,2.879,0,6.43,0s6.431,1,6.431,2.229" transform="translate(83.256 77.69)" fill="#ffa1b3"/>
        <path id="Fill_94" data-name="Fill 94" d="M12.861,2.229c0,1.231-2.879,2.229-6.431,2.229S0,3.46,0,2.229,2.879,0,6.43,0s6.431,1,6.431,2.229" transform="translate(114.011 77.69)" fill="#ffa1b3"/>
        <path id="Fill_96" data-name="Fill 96" d="M0,0,.626.373a10.045,10.045,0,0,0,1.354.68c.126.041.249.1.377.13a3.7,3.7,0,0,0,.373.1,2.842,2.842,0,0,0,.357.06,2.815,2.815,0,0,0,.329.029c.1,0,.2.006.288.01l.226-.016c.127-.006.206-.006.206-.006s-.06.043-.173.111a1.658,1.658,0,0,1-.507.218,1.5,1.5,0,0,1-.369.07,1.734,1.734,0,0,1-.421.01A2.23,2.23,0,0,1,2.22,1.7a4.251,4.251,0,0,1-.444-.133,3.7,3.7,0,0,1-.783-.436A3.514,3.514,0,0,1,.421.618,2.568,2.568,0,0,1,0,0" transform="translate(113.528 86.725)" fill="#db969f"/>
        <path id="Fill_98" data-name="Fill 98" d="M0,1.054A3.34,3.34,0,0,1,.445.8,7.214,7.214,0,0,1,1.7.31c.268-.073.561-.142.876-.2a7.9,7.9,0,0,1,1-.1,6.4,6.4,0,0,1,1.09.027A7.762,7.762,0,0,1,5.795.224,8.9,8.9,0,0,1,6.893.6c.174.086.345.177.511.269a2.421,2.421,0,0,1,.475.3,4.4,4.4,0,0,1,.8.71,3.863,3.863,0,0,1,.564.76c.139.259.25.5.344.707.07.223.106.425.142.585a4.59,4.59,0,0,1,.08.5s-.151-.128-.376-.348c-.111-.11-.245-.24-.384-.391-.171-.129-.358-.269-.544-.425a5,5,0,0,0-.645-.434,5.808,5.808,0,0,0-.744-.4c-.249-.144-.558-.209-.83-.339-.3-.085-.594-.187-.9-.262s-.618-.156-.937-.2c-.158-.025-.314-.058-.47-.089s-.313-.039-.467-.065C2.894,1.393,2.3,1.333,1.783,1.27L.5,1.121,0,1.054" transform="translate(110.369 83.83)" fill="#db969f"/>
        <path id="Fill_100" data-name="Fill 100" d="M0,19.764l21.528-15.6S20.969.958,23.9.122a3.455,3.455,0,0,1,3.635,5.294c-1.817,2.507-4.613.557-4.613.557L1.957,21.017Z" transform="translate(117.226 64.613)" fill="#fff"/>
        <path id="Fill_102" data-name="Fill 102" d="M0,1.463A1.468,1.468,0,1,0,1.468,0,1.465,1.465,0,0,0,0,1.463" transform="translate(140.642 66.268)" fill="#ff7d86"/>
        <path id="Stroke_104" data-name="Stroke 104" d="M19.851,0,0,14.069" transform="translate(121.839 68.218)" fill="none" stroke="#ff7d86" stroke-linecap="round" stroke-miterlimit="10" stroke-width="0.987"/>
        <path id="Fill_106" data-name="Fill 106" d="M15.844,0A5.774,5.774,0,0,1,15.4.644a13.314,13.314,0,0,1-1.366,1.515A16.742,16.742,0,0,1,11.789,3.95c-.434.3-.909.568-1.389.845-.495.252-1,.513-1.518.733A16.178,16.178,0,0,1,7.3,6.109,12.031,12.031,0,0,1,5.7,6.517a10.643,10.643,0,0,1-1.524.219A9.819,9.819,0,0,1,2.8,6.781c-.429-.018-.82-.054-1.162-.086C1.293,6.647,1,6.57.753,6.517.268,6.405,0,6.315,0,6.315s.276-.1.743-.241c.233-.068.513-.149.83-.23.316-.109.668-.231,1.049-.343.383-.1.786-.27,1.213-.408s.871-.308,1.329-.478c.462-.154.925-.359,1.4-.542s.953-.4,1.435-.593.952-.428,1.432-.618c.463-.226.936-.418,1.384-.629L13.307,1.1c.742-.331,1.371-.608,1.82-.8s.717-.3.717-.3" transform="translate(83.768 55.031)" fill="#002138"/>
        <path id="Fill_108" data-name="Fill 108" d="M0,0S.268.106.717.3s1.078.469,1.82.8L5.025,2.233c.448.211.921.4,1.384.629.48.19.947.427,1.433.618s.956.417,1.435.593.94.388,1.4.542c.458.17.9.349,1.328.478s.831.311,1.214.408c.381.112.733.234,1.049.343.318.081.6.161.831.23.466.137.743.241.743.241s-.268.09-.753.2c-.242.053-.54.13-.885.178-.342.032-.733.068-1.162.086a9.819,9.819,0,0,1-1.379-.045,10.631,10.631,0,0,1-1.524-.219,12.031,12.031,0,0,1-1.592-.408A16.241,16.241,0,0,1,6.96,5.527c-.522-.22-1.023-.48-1.517-.733-.48-.277-.955-.546-1.389-.845A16.706,16.706,0,0,1,1.809,2.158,13.26,13.26,0,0,1,.443.644,5.774,5.774,0,0,1,0,0" transform="translate(108.932 55.031)" fill="#002138"/>
        <path id="Fill_110" data-name="Fill 110" d="M0,6.408s.556,8.915,5.405,8.915c6.757,0,7.083-10.029,7.083-10.029S10.625.186,6.337,0A8.225,8.225,0,0,0,0,6.408" transform="translate(86.192 61.81)" fill="#f5a7ae"/>
        <path id="Fill_112" data-name="Fill 112" d="M.094.929s.072.31.237.823c.082.257.2.562.334.9A10.66,10.66,0,0,0,1.2,3.732c.112.186.245.367.371.557.155.168.279.366.449.529a3.78,3.78,0,0,0,.535.468c.1.069.2.138.291.212s.215.114.321.173a3.223,3.223,0,0,0,.684.287,4.136,4.136,0,0,0,.748.178,4.711,4.711,0,0,0,.8.071l.2.013.05,0,.025,0c-.028,0,.072,0-.062,0h.022l.116-.01.463-.041a3.887,3.887,0,0,0,.446-.043l.346-.093a3.316,3.316,0,0,0,.351-.09L7.719,5.8A5.135,5.135,0,0,0,9.027,5a7.833,7.833,0,0,0,1.056-1.081c.3-.393.569-.786.8-1.167a18.379,18.379,0,0,0,1-1.96C12.1.3,12.209,0,12.209,0s.008.079.011.227A6.083,6.083,0,0,1,12.2.871a9.192,9.192,0,0,1-.441,2.277c-.085.227-.163.471-.265.717s-.227.492-.368.742a7.057,7.057,0,0,1-1.084,1.477,5.111,5.111,0,0,1-.753.655,4.375,4.375,0,0,1-.888.536L7.922,7.5a3.748,3.748,0,0,1-.536.159l-.553.134a4.307,4.307,0,0,1-.477.053l-.464.033-.116.008-.1,0-.033,0-.065,0-.259-.019a5.214,5.214,0,0,1-1.029-.136A4.6,4.6,0,0,1,3.3,7.417l-.471-.211A3.745,3.745,0,0,1,2.4,6.933c-.138-.1-.281-.183-.407-.289s-.239-.225-.352-.338a5.073,5.073,0,0,1-.591-.714,7.338,7.338,0,0,1-.436-.74C.51,4.6.4,4.355.327,4.118A6.883,6.883,0,0,1,0,1.8,4.68,4.68,0,0,1,.094.929" transform="translate(86.284 66.36)" fill="#002138"/>
        <path id="Fill_114" data-name="Fill 114" d="M12.488,6.408s-.56,9.122-5.4,8.915C.559,15.045,0,5.294,0,5.294S1.864.186,6.151,0a8.225,8.225,0,0,1,6.337,6.408" transform="translate(110.236 61.81)" fill="#f5a7ae"/>
        <path id="Fill_116" data-name="Fill 116" d="M12.128.929a4.7,4.7,0,0,1,.092.869A6.883,6.883,0,0,1,11.9,4.118c-.078.237-.182.478-.284.733a7.232,7.232,0,0,1-.436.74,5.068,5.068,0,0,1-.591.714c-.114.113-.231.227-.352.338s-.269.192-.407.289a3.794,3.794,0,0,1-.431.273l-.471.211a4.586,4.586,0,0,1-.993.309A5.208,5.208,0,0,1,6.9,7.862l-.26.019-.065,0-.032,0-.1,0-.116-.008-.464-.033A4.292,4.292,0,0,1,5.39,7.79l-.553-.134A3.726,3.726,0,0,1,4.3,7.5l-.483-.222a4.345,4.345,0,0,1-.888-.536,5.053,5.053,0,0,1-.753-.655A7.037,7.037,0,0,1,1.092,4.606c-.14-.25-.255-.5-.368-.742s-.18-.489-.265-.717A9.218,9.218,0,0,1,.018.871,6.051,6.051,0,0,1,0,.227C0,.079.012,0,.012,0s.113.3.33.794a18.251,18.251,0,0,0,1,1.96c.232.382.5.774.8,1.167A7.833,7.833,0,0,0,3.194,5,5.135,5.135,0,0,0,4.5,5.8l.359.147a3.342,3.342,0,0,0,.351.09l.346.093A3.887,3.887,0,0,0,6,6.177l.463.041.116.01H6.6c-.134-.006-.034,0-.062,0l.025,0,.05,0,.2-.013a4.711,4.711,0,0,0,.8-.071,4.129,4.129,0,0,0,.748-.178,3.228,3.228,0,0,0,.684-.287c.106-.059.22-.107.321-.173s.193-.143.291-.212a3.753,3.753,0,0,0,.535-.468c.169-.164.293-.362.449-.529.125-.19.259-.37.37-.557a10.791,10.791,0,0,0,.539-1.08c.137-.339.253-.644.334-.9.166-.513.237-.823.237-.823" transform="translate(110.596 66.36)" fill="#002138"/>
        <path id="Fill_118" data-name="Fill 118" d="M0,0,14.029,7.918,11.955,31.781.022,22.5Z" transform="translate(84.374 217.155)" fill="#0086a6"/>
        <path id="Fill_120" data-name="Fill 120" d="M54.19,0,2.074,6.589,0,30.452,52.616,23.9Z" transform="translate(96.329 218.484)" fill="#00a1be"/>
        <path id="Fill_122" data-name="Fill 122" d="M0,7.454,54.18,0,66.145,8.783,14.029,15.372Z" transform="translate(84.374 209.701)" fill="#00c5e2"/>
        <path id="Fill_124" data-name="Fill 124" d="M.018,5.905A1.7,1.7,0,0,0,1.942,7.339L37.484,3.37A1.694,1.694,0,1,0,37,.017L1.458,3.987A1.694,1.694,0,0,0,.018,5.905" transform="translate(99.614 213.277)" fill="#0086a6"/>
        <path id="Fill_126" data-name="Fill 126" d="M9.153,28.69s3.331-10.341-4.459-12.736S1.16,4.107,1.16,4.107L37.537,0s-6.549,7.491.061,10.564,1.32,14.417,1.32,14.417Z" transform="translate(96.572 191.822)" fill="#fff"/>
        <path id="Fill_128" data-name="Fill 128" d="M34.771,7.5C33.935,4.12,37.533,0,37.533,0L1.156,4.106s-2.656,5.909.083,9.567C12.338,11.2,23.423,8.227,34.771,7.5" transform="translate(96.577 191.822)" fill="#0086a6"/>
        <path id="Fill_130" data-name="Fill 130" d="M13.581,2.8c-4.3.615-8.6,1.209-12.892,1.84A17.609,17.609,0,0,1,0,8.744L29.766,5.035A25.871,25.871,0,0,0,31.4,0c-5.94.942-11.87,1.954-17.816,2.8" transform="translate(105.726 211.768)" fill="#0086a6"/>
      </g>
    </g>
  </g>
</svg>
